<svg id="Capa_1" enable-background="new 0 0 512 512" height="512" viewBox="0 0 512 512" width="512" xmlns="http://www.w3.org/2000/svg"><g><path d="m474.5 443.5h-437c-20.678 0-37.5-16.822-37.5-37.5v-300c0-20.678 16.822-37.5 37.5-37.5h437c20.678 0 37.5 16.822 37.5 37.5v12.818c0 4.142-3.357 7.5-7.5 7.5s-7.5-3.358-7.5-7.5v-12.818c0-12.407-10.094-22.5-22.5-22.5h-437c-12.407 0-22.5 10.093-22.5 22.5v300c0 12.407 10.093 22.5 22.5 22.5h437c12.406 0 22.5-10.093 22.5-22.5v-257.182c0-4.142 3.357-7.5 7.5-7.5s7.5 3.358 7.5 7.5v257.182c0 20.678-16.822 37.5-37.5 37.5zm-61-45c-4.143 0-7.5-3.358-7.5-7.5v-63.801c-11.341-.549-20.288-2.253-26.168-3.724-6.672-1.668-11.332-7.649-11.332-14.545v-23.1c0-6.895 4.66-12.876 11.332-14.545 5.88-1.471 14.827-3.174 26.168-3.724v-56.561c0-4.142 3.357-7.5 7.5-7.5s7.5 3.358 7.5 7.5v56.561c11.341.549 20.288 2.253 26.168 3.724 6.672 1.669 11.332 7.65 11.332 14.545v23.101c0 6.896-4.66 12.877-11.333 14.545-5.879 1.471-14.826 3.174-26.167 3.724v63.8c0 4.142-3.357 7.5-7.5 7.5zm0-116.12c-13.397 0-23.725 1.879-30.028 3.456l.028 23.094c0 .006.001.008.001.008 6.274 1.562 16.602 3.441 29.999 3.441s23.725-1.879 30.028-3.456l-.028-23.093c-6.275-1.571-16.603-3.45-30-3.45zm-105 116.12c-4.143 0-7.5-3.358-7.5-7.5v-33.801c-11.341-.549-20.288-2.253-26.168-3.724-6.672-1.668-11.332-7.649-11.332-14.545v-23.1c0-6.895 4.66-12.876 11.332-14.545 5.88-1.471 14.827-3.174 26.168-3.724v-86.561c0-4.142 3.357-7.5 7.5-7.5s7.5 3.358 7.5 7.5v93.88c0 4.142-3.357 7.5-7.5 7.5-13.397 0-23.725 1.879-30.028 3.456l.028 23.094c6.275 1.57 16.603 3.45 30 3.45s23.725-1.879 30.028-3.456l-.028-23.094c-.436-.109-.931-.229-1.453-.351-4.034-.938-6.544-4.97-5.604-9.004.938-4.035 4.969-6.546 9.005-5.605.606.141 1.18.28 1.72.415 6.673 1.669 11.333 7.65 11.333 14.545v23.101c0 6.896-4.66 12.877-11.333 14.545-5.879 1.471-14.826 3.174-26.167 3.724v33.8c-.001 4.142-3.358 7.5-7.501 7.5zm-105 0c-4.142 0-7.5-3.358-7.5-7.5v-63.801c-11.341-.549-20.288-2.253-26.167-3.724-6.672-1.668-11.333-7.649-11.333-14.545v-23.1c0-6.895 4.66-12.876 11.333-14.545 5.879-1.471 14.827-3.174 26.167-3.724v-56.561c0-4.142 3.358-7.5 7.5-7.5s7.5 3.358 7.5 7.5v56.561c11.341.549 20.288 2.253 26.167 3.724 6.672 1.669 11.333 7.65 11.333 14.545v23.101c0 6.896-4.661 12.877-11.333 14.545-5.878 1.471-14.826 3.174-26.167 3.724v63.8c0 4.142-3.358 7.5-7.5 7.5zm0-116.12c-13.398 0-23.724 1.879-30.028 3.456l.028 23.094c6.276 1.57 16.602 3.45 30 3.45s23.724-1.879 30.028-3.456l-.028.006v-23.1c-6.276-1.571-16.602-3.45-30-3.45zm-105 116.12c-4.142 0-7.5-3.358-7.5-7.5v-93.801c-11.341-.549-20.288-2.253-26.167-3.724-6.672-1.668-11.333-7.649-11.333-14.545v-23.1c0-6.895 4.66-12.876 11.333-14.545 5.879-1.471 14.827-3.174 26.167-3.724v-26.561c0-4.142 3.358-7.5 7.5-7.5s7.5 3.358 7.5 7.5v26.561c11.341.549 20.288 2.253 26.167 3.724 6.672 1.669 11.333 7.65 11.333 14.545v23.101c0 6.896-4.661 12.877-11.333 14.545-5.878 1.471-14.826 3.174-26.167 3.724v93.8c0 4.142-3.358 7.5-7.5 7.5zm0-146.12c-13.398 0-23.724 1.879-30.028 3.456l.028 23.094c6.276 1.57 16.602 3.45 30 3.45s23.724-1.879 30.028-3.456l-.028-23.094c0-.006 0-.008 0-.008-6.276-1.563-16.602-3.442-30-3.442zm345-93.88h-60c-8.271 0-15-6.729-15-15v-15c0-8.271 6.729-15 15-15h60c8.271 0 15 6.729 15 15v15c0 8.271-6.729 15-15 15zm-60-30v15h60v-15zm-45 30h-60c-8.271 0-15-6.729-15-15v-15c0-8.271 6.729-15 15-15h60c8.271 0 15 6.729 15 15v15c0 8.271-6.729 15-15 15zm-60-30v15h60v-15zm-45 30h-60c-8.271 0-15-6.729-15-15v-15c0-8.271 6.729-15 15-15h60c8.271 0 15 6.729 15 15v15c0 8.271-6.729 15-15 15zm-60-30v15h60v-15zm-45 30h-60c-8.271 0-15-6.729-15-15v-15c0-8.271 6.729-15 15-15h60c8.271 0 15 6.729 15 15v15c0 8.271-6.729 15-15 15zm-60-30v15h60v-15z"/></g></svg>